<svg xmlns="http://www.w3.org/2000/svg" viewBox="0 0 1200 675" role="img" aria-labelledby="title desc">
  <title id="title">AI Resume Analyzer logo cover</title>
  <desc id="desc">Pastel AI resume analysis website logo cover.</desc>
  <defs>
    <linearGradient id="bg" x1="0" x2="1" y1="0" y2="1">
      <stop offset="0" stop-color="#d8cbff"/>
      <stop offset="0.48" stop-color="#ffc7db"/>
      <stop offset="1" stop-color="#bdeedb"/>
    </linearGradient>
    <linearGradient id="paper" x1="0" x2="1" y1="0" y2="1">
      <stop offset="0" stop-color="#ffffff"/>
      <stop offset="1" stop-color="#fff7fb"/>
    </linearGradient>
  </defs>
  <rect width="1200" height="675" rx="54" fill="url(#bg)"/>
  <circle cx="244" cy="128" r="82" fill="#fff" opacity=".34"/>
  <circle cx="988" cy="520" r="132" fill="#fff" opacity=".32"/>
  <rect x="298" y="96" width="506" height="452" rx="54" fill="url(#paper)" opacity=".94"/>
  <rect x="368" y="178" width="286" height="30" rx="15" fill="#ffb9d2"/>
  <rect x="368" y="254" width="388" height="24" rx="12" fill="#cbbcff"/>
  <rect x="368" y="314" width="334" height="24" rx="12" fill="#bdeedb"/>
  <rect x="368" y="374" width="260" height="24" rx="12" fill="#ffd2aa"/>
  <circle cx="787" cy="398" r="94" fill="#ffffff" opacity=".96"/>
  <path d="m746 399 34 34 69-84" fill="none" stroke="#3e354c" stroke-width="22" stroke-linecap="round" stroke-linejoin="round"/>
  <path d="M850 198c32 0 58 26 58 58M850 156c55 0 100 45 100 100" fill="none" stroke="#fff" stroke-width="22" stroke-linecap="round" opacity=".9"/>
  <text x="600" y="611" text-anchor="middle" font-family="Verdana, Arial, sans-serif" font-size="78" font-weight="900" fill="#3e354c">AI Resume Analyzer</text>
</svg>
