<svg xmlns="http://www.w3.org/2000/svg" viewBox="0 0 1200 675" role="img" aria-labelledby="title desc">
  <title id="title">ClimateCast logo cover</title>
  <desc id="desc">Pastel weather and climate logo cover for ClimateCast.</desc>
  <defs>
    <linearGradient id="bg" x1="0" x2="1" y1="0" y2="1">
      <stop offset="0" stop-color="#c9f4df"/>
      <stop offset="0.55" stop-color="#d8cbff"/>
      <stop offset="1" stop-color="#ffe1b9"/>
    </linearGradient>
  </defs>
  <rect width="1200" height="675" rx="54" fill="url(#bg)"/>
  <circle cx="965" cy="130" r="84" fill="#fff6bf" opacity=".92"/>
  <path d="M309 425h476c79 0 143-56 143-125s-64-125-143-125c-15 0-30 2-44 6-44-73-132-121-232-121-126 0-232 76-257 177-8-1-17-2-26-2-81 0-146 52-146 116s65 74 229 74Z" fill="#fff" opacity=".9"/>
  <path d="M304 479c51 0 51 28 102 28s51-28 102-28 51 28 102 28 51-28 102-28 51 28 102 28" fill="none" stroke="#48b794" stroke-width="22" stroke-linecap="round"/>
  <text x="600" y="314" text-anchor="middle" font-family="Verdana, Arial, sans-serif" font-size="88" font-weight="800" fill="#3e5460">ClimateCast</text>
  <text x="600" y="382" text-anchor="middle" font-family="Verdana, Arial, sans-serif" font-size="30" font-weight="700" letter-spacing="8" fill="#5d7781">LIVE CLIMATE DASHBOARD</text>
</svg>
