<svg xmlns="http://www.w3.org/2000/svg" viewBox="0 0 1200 675" role="img" aria-labelledby="title desc">
  <title id="title">Doomscroller Stopper logo cover</title>
  <desc id="desc">Pastel focus and screen-time website logo cover.</desc>
  <defs>
    <linearGradient id="bg" x1="0" x2="1" y1="0" y2="1">
      <stop offset="0" stop-color="#cbbcff"/>
      <stop offset="0.46" stop-color="#ffc7db"/>
      <stop offset="1" stop-color="#bdeedb"/>
    </linearGradient>
    <linearGradient id="phone" x1="0" x2="1" y1="0" y2="1">
      <stop offset="0" stop-color="#ffffff"/>
      <stop offset="1" stop-color="#fff7fb"/>
    </linearGradient>
  </defs>
  <rect width="1200" height="675" rx="54" fill="url(#bg)"/>
  <circle cx="250" cy="145" r="90" fill="#fff" opacity=".35"/>
  <circle cx="972" cy="505" r="132" fill="#fff" opacity=".32"/>
  <rect x="415" y="78" width="370" height="470" rx="58" fill="url(#phone)" opacity=".94"/>
  <rect x="456" y="144" width="288" height="62" rx="24" fill="#ffb9d2"/>
  <rect x="456" y="238" width="288" height="62" rx="24" fill="#cbbcff"/>
  <rect x="456" y="332" width="288" height="62" rx="24" fill="#bdeedb"/>
  <circle cx="600" cy="475" r="42" fill="#fff"/>
  <path d="M466 471h268" stroke="#3e354c" stroke-width="28" stroke-linecap="round"/>
  <path d="M786 143l74-74M826 204l103-13M384 204l-103-13M414 143l-74-74" fill="none" stroke="#fff" stroke-width="24" stroke-linecap="round" opacity=".88"/>
  <text x="600" y="613" text-anchor="middle" font-family="Verdana, Arial, sans-serif" font-size="72" font-weight="900" fill="#3e354c">Doomscroller Stopper</text>
</svg>
