<svg xmlns="http://www.w3.org/2000/svg" viewBox="0 0 1200 675" role="img" aria-labelledby="title desc">
  <title id="title">MindWall logo cover</title>
  <desc id="desc">Pastel profile and idea wall website logo cover.</desc>
  <defs>
    <linearGradient id="bg" x1="0" x2="1" y1="0" y2="1">
      <stop offset="0" stop-color="#ffc7db"/>
      <stop offset="0.5" stop-color="#d8cbff"/>
      <stop offset="1" stop-color="#bdeedb"/>
    </linearGradient>
    <linearGradient id="card" x1="0" x2="1" y1="0" y2="1">
      <stop offset="0" stop-color="#ffffff"/>
      <stop offset="1" stop-color="#fff7fb"/>
    </linearGradient>
  </defs>
  <rect width="1200" height="675" rx="54" fill="url(#bg)"/>
  <circle cx="230" cy="135" r="86" fill="#fff" opacity=".35"/>
  <circle cx="970" cy="520" r="126" fill="#fff" opacity=".32"/>
  <rect x="270" y="122" width="860" height="384" rx="56" fill="#fff" opacity=".35"/>
  <rect x="330" y="180" width="260" height="210" rx="36" fill="url(#card)" opacity=".95"/>
  <rect x="628" y="180" width="260" height="210" rx="36" fill="url(#card)" opacity=".95"/>
  <rect x="480" y="260" width="260" height="210" rx="36" fill="url(#card)" opacity=".98"/>
  <circle cx="460" cy="255" r="42" fill="#ffb9d2"/>
  <circle cx="758" cy="255" r="42" fill="#cbbcff"/>
  <circle cx="610" cy="335" r="48" fill="#bdeedb"/>
  <path d="M430 330h130M660 330h128M558 410h114" stroke="#6a5b78" stroke-width="22" stroke-linecap="round"/>
  <path d="M600 132v-44M600 568v-44M210 338h44M946 338h44" stroke="#fff" stroke-width="22" stroke-linecap="round" opacity=".9"/>
  <text x="600" y="610" text-anchor="middle" font-family="Verdana, Arial, sans-serif" font-size="96" font-weight="900" fill="#3e354c">MindWall</text>
</svg>
