<svg xmlns="http://www.w3.org/2000/svg" viewBox="0 0 1200 675" role="img" aria-labelledby="title desc">
  <title id="title">Sleep Alarm logo cover</title>
  <desc id="desc">Pastel sleep and alarm website logo cover.</desc>
  <defs>
    <linearGradient id="bg" x1="0" x2="1" y1="0" y2="1">
      <stop offset="0" stop-color="#cbbcff"/>
      <stop offset="0.48" stop-color="#bce7ff"/>
      <stop offset="1" stop-color="#ffd2aa"/>
    </linearGradient>
    <linearGradient id="clock" x1="0" x2="1" y1="0" y2="1">
      <stop offset="0" stop-color="#fff"/>
      <stop offset="1" stop-color="#fff7fb"/>
    </linearGradient>
  </defs>
  <rect width="1200" height="675" rx="54" fill="url(#bg)"/>
  <circle cx="264" cy="156" r="82" fill="#fff" opacity=".38"/>
  <circle cx="978" cy="502" r="126" fill="#fff" opacity=".34"/>
  <path d="M838 166c-34 24-76 38-122 38-112 0-202-90-202-202 0-18 2-35 7-52-82 36-139 118-139 214 0 129 105 234 234 234 93 0 173-54 211-133-4 0-9 1-13 1-71 0-129-58-129-129 0-4 0-8 1-12Z" fill="#fff6c7" opacity=".88" transform="translate(40 44)"/>
  <rect x="340" y="162" width="520" height="384" rx="68" fill="url(#clock)" opacity=".92"/>
  <circle cx="600" cy="340" r="122" fill="#d8cbff" opacity=".58"/>
  <circle cx="600" cy="340" r="92" fill="#fff" opacity=".95"/>
  <path d="M600 286v63l54 34" fill="none" stroke="#43394f" stroke-width="24" stroke-linecap="round" stroke-linejoin="round"/>
  <path d="M492 165l-64-54M708 165l64-54" fill="none" stroke="#43394f" stroke-width="28" stroke-linecap="round"/>
  <text x="600" y="594" text-anchor="middle" font-family="Verdana, Arial, sans-serif" font-size="92" font-weight="900" fill="#3f365a">Sleep Alarm</text>
</svg>
